<svg width="601" height="266" viewBox="0 0 601 266" fill="none" xmlns="http://www.w3.org/2000/svg">
<path d="M394.899 183.881C393.734 186.031 392.497 188.136 391.193 190.194L404.441 210.066C405.905 212.262 405.615 215.186 403.749 217.053L384.655 236.146C382.789 238.013 379.864 238.302 377.668 236.838L357.792 223.588C347.555 230.074 336.146 234.878 323.954 237.61L319.272 261.018C318.754 263.607 316.482 265.47 313.842 265.47H286.84C284.201 265.47 281.928 263.607 281.41 261.018L276.728 237.608C264.535 234.874 253.126 230.068 242.888 223.579L223.02 236.824C220.824 238.289 217.899 237.999 216.033 236.132L196.94 217.039C195.073 215.172 194.784 212.248 196.248 210.052L209.494 190.182C208.194 188.132 206.962 186.034 205.801 183.892L217.372 176.842L217.398 176.891C233.209 206.498 264.411 226.645 300.319 226.645C336.227 226.645 367.43 206.498 383.24 176.891L383.266 176.842L394.899 183.881Z" fill="white"/>
<path d="M351.352 134.373C351.315 136.093 351.282 137.615 351.255 138.768C343.366 144.439 324.657 156.566 312.932 159.704C301.206 162.841 279.925 180.636 270.75 189.141C269.837 188.778 268.698 188.214 267.426 187.441C272.953 182.737 279.937 176.908 286.499 171.663C290.725 168.286 294.75 165.171 298.087 162.759C301.55 160.257 303.945 158.757 305.048 158.324C309.082 156.742 319.667 151.851 331.026 145.904C337.838 142.338 345.047 138.331 351.352 134.373Z" fill="white"/>
<path d="M277.795 81.7952C297.601 73.0899 326.327 76.3223 338.215 79.0267C338.722 83.4627 340.442 93.1409 343.266 96.366C346.797 100.397 351.669 111.416 351.622 118.15C351.607 120.35 351.56 123.418 351.504 126.594C344.77 131.079 336.243 135.89 328.033 140.188C316.759 146.09 306.409 150.859 302.691 152.317C300.694 153.101 297.64 155.121 294.307 157.529C290.849 160.029 286.732 163.217 282.47 166.623C275.395 172.278 267.851 178.59 262.128 183.478C258.153 179.903 254.064 174.714 251.734 167.759C251.547 167.2 251.37 166.621 251.202 166.023C266.104 156.365 285.931 143.482 288.527 141.668C292.507 138.886 295.449 132.398 297.727 125.778C300.004 119.158 301.486 114.893 300.801 111.402C300.116 107.91 297.727 107.383 294.307 107.383C290.888 107.383 289.118 107.869 280.727 114.893L248.979 124.142C249.058 123.031 249.141 122.01 249.225 121.096C250.496 111.623 257.988 90.5005 277.795 81.7952Z" fill="white"/>
<path d="M293.191 110.049C295.686 110.049 297.709 112.071 297.709 114.566C297.709 117.061 295.686 119.084 293.191 119.084C290.696 119.084 288.674 117.061 288.674 114.566C288.674 112.071 290.696 110.049 293.191 110.049Z" fill="white"/>
<path fill-rule="evenodd" clip-rule="evenodd" d="M300.382 47.2553C347.586 47.2553 385.852 85.5211 385.852 132.724C385.852 179.928 347.586 218.194 300.382 218.194C253.179 218.194 214.913 179.928 214.913 132.724C214.913 85.5211 253.179 47.2553 300.382 47.2553ZM300.382 49.6916C254.525 49.6917 217.349 86.8667 217.349 132.724C217.349 178.582 254.525 215.757 300.382 215.757C346.24 215.757 383.415 178.582 383.415 132.724C383.415 86.8667 346.24 49.6916 300.382 49.6916Z" fill="white"/>
<path d="M313.862 0C316.502 1.70166e-05 318.775 1.8631 319.292 4.45137L323.973 27.8554C336.167 30.5906 347.578 35.3983 357.817 41.8892L377.682 28.6457C379.878 27.1816 382.803 27.4711 384.669 29.3375L403.763 48.4311C405.629 50.2975 405.919 53.2219 404.455 55.4182L391.207 75.2897C392.242 76.9236 393.234 78.5873 394.182 80.2792L394.209 80.3276L394.218 80.3428L394.179 80.3454L382.562 87.2671L382.535 87.2187C366.514 58.3219 335.701 38.7616 300.319 38.7616C264.938 38.7616 234.125 58.3219 218.104 87.2187L218.077 87.2671L206.516 80.3791L206.471 80.3524C201.503 89.2377 197.759 98.9009 195.47 109.113L172.068 113.794C169.479 114.311 167.616 116.584 167.616 119.224V146.226C167.616 148.866 169.479 151.138 172.068 151.656L195.467 156.336C197.643 166.044 201.131 175.255 205.737 183.775L205.764 183.823L205.801 183.892L205.701 183.861L205.631 183.838L42.9423 132.509L36.1314 122.21L159.255 150.506L155.323 133.894L25.9149 106.484L18.0242 94.5506L157.095 113.794L164.423 98.2607L8.69373 80.3473L0 66.9467L206.456 80.3434L206.476 80.3445L206.498 80.3039C207.455 78.595 208.457 76.9149 209.503 75.2653L196.262 55.404C194.798 53.2078 195.087 50.2833 196.954 48.4169L216.047 29.3234C217.914 27.4569 220.838 27.1673 223.034 28.6314L242.9 41.875C253.141 35.386 264.554 30.581 276.751 27.8489L281.43 4.45137C281.948 1.8631 284.22 8.50793e-06 286.86 0H313.862Z" fill="white"/>
<path d="M591.973 80.3473L436.243 98.2607L442.962 113.814L582.642 94.5506L574.751 106.484L442.962 134.226L439.833 151.656L564.535 122.21L557.724 132.509L394.899 183.881C399.508 175.362 403.044 166.068 405.222 156.358L428.635 151.676C431.223 151.158 433.086 148.886 433.086 146.246V119.244C433.086 116.604 431.223 114.332 428.635 113.814L405.229 109.133C402.938 98.9094 399.192 89.2363 394.218 80.3428L600.666 66.9467L591.973 80.3473Z" fill="white"/>
</svg>
