<svg width="656" height="331" viewBox="0 0 656 331" fill="none" xmlns="http://www.w3.org/2000/svg">
<path d="M0 330.59L8.5496 311.408H12.934L21.511 330.59H16.8526L9.83752 313.655H11.5913L4.54883 330.59H0ZM4.2748 326.48L5.45311 323.109H15.318L16.5237 326.48H4.2748Z" fill="white"/>
<path d="M62.3854 319.136H71.62V322.589H62.3854V319.136ZM62.7142 327.028H73.1546V330.59H58.3024V311.408H72.7983V314.971H62.7142V327.028Z" fill="white"/>
<path d="M120.805 330.919C119.289 330.919 117.882 330.672 116.585 330.179C115.306 329.686 114.192 328.992 113.242 328.097C112.31 327.201 111.579 326.151 111.05 324.945C110.538 323.74 110.282 322.424 110.282 320.999C110.282 319.574 110.538 318.259 111.05 317.053C111.579 315.848 112.319 314.797 113.269 313.902C114.219 313.007 115.333 312.313 116.612 311.819C117.891 311.326 119.279 311.08 120.777 311.08C122.294 311.08 123.682 311.326 124.943 311.819C126.221 312.313 127.327 313.007 128.258 313.902C129.208 314.797 129.948 315.848 130.478 317.053C131.008 318.241 131.273 319.556 131.273 320.999C131.273 322.424 131.008 323.749 130.478 324.973C129.948 326.178 129.208 327.229 128.258 328.124C127.327 329.001 126.221 329.686 124.943 330.179C123.682 330.672 122.303 330.919 120.805 330.919ZM120.777 327.137C121.636 327.137 122.422 326.991 123.134 326.699C123.865 326.407 124.504 325.987 125.052 325.438C125.6 324.89 126.02 324.242 126.313 323.493C126.623 322.744 126.779 321.913 126.779 320.999C126.779 320.086 126.623 319.255 126.313 318.506C126.02 317.757 125.6 317.108 125.052 316.56C124.522 316.012 123.892 315.592 123.161 315.3C122.431 315.007 121.636 314.861 120.777 314.861C119.919 314.861 119.124 315.007 118.393 315.3C117.681 315.592 117.051 316.012 116.503 316.56C115.955 317.108 115.525 317.757 115.215 318.506C114.922 319.255 114.776 320.086 114.776 320.999C114.776 321.894 114.922 322.726 115.215 323.493C115.525 324.242 115.945 324.89 116.475 325.438C117.023 325.987 117.663 326.407 118.393 326.699C119.124 326.991 119.919 327.137 120.777 327.137Z" fill="white"/>
<path d="M169.41 330.59V311.408H173.849V326.973H183.468V330.59H169.41Z" fill="white"/>
<path d="M229.057 330.919C226.335 330.919 224.207 330.161 222.673 328.645C221.138 327.128 220.371 324.964 220.371 322.15V311.408H224.81V321.986C224.81 323.813 225.185 325.128 225.934 325.932C226.683 326.736 227.733 327.137 229.085 327.137C230.437 327.137 231.487 326.736 232.236 325.932C232.985 325.128 233.36 323.813 233.36 321.986V311.408H237.744V322.15C237.744 324.964 236.977 327.128 235.442 328.645C233.908 330.161 231.779 330.919 229.057 330.919Z" fill="white"/>
<path d="M283.235 330.919C281.7 330.919 280.229 330.718 278.823 330.316C277.416 329.896 276.284 329.357 275.425 328.699L276.932 325.356C277.754 325.941 278.722 326.425 279.837 326.809C280.969 327.174 282.111 327.357 283.262 327.357C284.139 327.357 284.842 327.274 285.372 327.11C285.92 326.927 286.322 326.681 286.578 326.37C286.834 326.06 286.961 325.703 286.961 325.301C286.961 324.79 286.76 324.388 286.359 324.096C285.957 323.785 285.427 323.539 284.769 323.356C284.112 323.155 283.381 322.972 282.577 322.808C281.791 322.625 280.997 322.406 280.193 322.15C279.407 321.894 278.686 321.566 278.028 321.164C277.371 320.762 276.832 320.232 276.411 319.574C276.009 318.917 275.809 318.076 275.809 317.053C275.809 315.957 276.101 314.962 276.685 314.066C277.288 313.153 278.183 312.431 279.371 311.902C280.577 311.354 282.084 311.08 283.892 311.08C285.098 311.08 286.285 311.226 287.455 311.518C288.624 311.792 289.656 312.212 290.551 312.779L289.181 316.149C288.286 315.638 287.391 315.263 286.496 315.026C285.6 314.77 284.724 314.642 283.865 314.642C283.006 314.642 282.303 314.742 281.755 314.943C281.207 315.144 280.814 315.409 280.577 315.738C280.339 316.049 280.22 316.414 280.22 316.834C280.22 317.327 280.421 317.729 280.823 318.04C281.225 318.332 281.755 318.57 282.413 318.752C283.07 318.935 283.792 319.118 284.577 319.3C285.381 319.483 286.176 319.693 286.961 319.931C287.765 320.168 288.496 320.488 289.154 320.89C289.811 321.292 290.341 321.821 290.743 322.479C291.163 323.137 291.373 323.968 291.373 324.973C291.373 326.05 291.072 327.037 290.469 327.932C289.866 328.827 288.962 329.549 287.756 330.097C286.569 330.645 285.061 330.919 283.235 330.919Z" fill="white"/>
<path d="M371.77 330.59V311.408H380.073C381.79 311.408 383.269 311.692 384.512 312.258C385.754 312.806 386.713 313.601 387.389 314.642C388.065 315.683 388.403 316.925 388.403 318.369C388.403 319.794 388.065 321.027 387.389 322.068C386.713 323.091 385.754 323.877 384.512 324.425C383.269 324.973 381.79 325.247 380.073 325.247H374.236L376.209 323.301V330.59H371.77ZM383.964 330.59L379.168 323.63H383.909L388.759 330.59H383.964ZM376.209 323.794L374.236 321.712H379.826C381.196 321.712 382.219 321.419 382.895 320.835C383.571 320.232 383.909 319.41 383.909 318.369C383.909 317.309 383.571 316.487 382.895 315.902C382.219 315.318 381.196 315.026 379.826 315.026H374.236L376.209 312.916V323.794Z" fill="white"/>
<path d="M424.2 330.59L432.75 311.408H437.134L445.711 330.59H441.053L434.038 313.655H435.792L428.749 330.59H424.2ZM428.475 326.48L429.653 323.109H439.518L440.724 326.48H428.475Z" fill="white"/>
<path d="M491.415 330.919C489.935 330.919 488.556 330.682 487.277 330.207C486.017 329.713 484.921 329.019 483.989 328.124C483.057 327.229 482.326 326.178 481.797 324.973C481.285 323.767 481.029 322.442 481.029 320.999C481.029 319.556 481.285 318.232 481.797 317.026C482.326 315.82 483.057 314.77 483.989 313.875C484.939 312.979 486.044 312.294 487.305 311.819C488.565 311.326 489.944 311.08 491.442 311.08C493.105 311.08 494.603 311.372 495.936 311.956C497.288 312.523 498.421 313.363 499.334 314.477L496.484 317.108C495.827 316.359 495.096 315.802 494.292 315.437C493.488 315.053 492.611 314.861 491.662 314.861C490.766 314.861 489.944 315.007 489.195 315.3C488.446 315.592 487.798 316.012 487.25 316.56C486.702 317.108 486.272 317.757 485.962 318.506C485.67 319.255 485.523 320.086 485.523 320.999C485.523 321.913 485.67 322.744 485.962 323.493C486.272 324.242 486.702 324.89 487.25 325.438C487.798 325.987 488.446 326.407 489.195 326.699C489.944 326.991 490.766 327.137 491.662 327.137C492.611 327.137 493.488 326.955 494.292 326.589C495.096 326.206 495.827 325.63 496.484 324.863L499.334 327.494C498.421 328.608 497.288 329.458 495.936 330.042C494.603 330.627 493.096 330.919 491.415 330.919Z" fill="white"/>
<path d="M537.133 330.59V311.408H541.573V330.59H537.133Z" fill="white"/>
<path d="M580.926 330.59V311.408H584.598L595.915 325.219H594.134V311.408H598.519V330.59H594.874L583.529 316.779H585.31V330.59H580.926Z" fill="white"/>
<path d="M647.12 330.919C645.604 330.919 644.206 330.682 642.928 330.207C641.667 329.713 640.562 329.019 639.612 328.124C638.68 327.229 637.949 326.178 637.42 324.973C636.908 323.767 636.652 322.442 636.652 320.999C636.652 319.556 636.908 318.232 637.42 317.026C637.949 315.82 638.689 314.77 639.639 313.875C640.589 312.979 641.704 312.294 642.982 311.819C644.261 311.326 645.668 311.08 647.202 311.08C648.901 311.08 650.427 311.363 651.779 311.929C653.149 312.495 654.3 313.317 655.231 314.395L652.382 317.026C651.687 316.295 650.929 315.756 650.107 315.409C649.285 315.044 648.39 314.861 647.422 314.861C646.49 314.861 645.64 315.007 644.873 315.3C644.106 315.592 643.439 316.012 642.873 316.56C642.325 317.108 641.895 317.757 641.585 318.506C641.293 319.255 641.146 320.086 641.146 320.999C641.146 321.894 641.293 322.717 641.585 323.466C641.895 324.215 642.325 324.872 642.873 325.438C643.439 325.987 644.097 326.407 644.846 326.699C645.613 326.991 646.453 327.137 647.367 327.137C648.244 327.137 649.093 327 649.915 326.726C650.756 326.434 651.569 325.95 652.354 325.274L654.875 328.48C653.834 329.266 652.619 329.869 651.231 330.289C649.86 330.709 648.49 330.919 647.12 330.919ZM650.82 327.905V320.698H654.875V328.48L650.82 327.905Z" fill="white"/>
<path d="M422.936 183.881C421.77 186.031 420.534 188.136 419.229 190.194L432.477 210.066C433.941 212.262 433.652 215.186 431.785 217.053L412.692 236.146C410.825 238.013 407.901 238.302 405.705 236.838L385.829 223.588C375.591 230.074 364.182 234.878 351.99 237.61L347.309 261.018C346.791 263.607 344.518 265.47 341.879 265.47H314.877C312.237 265.47 309.964 263.607 309.447 261.018L304.765 237.608C292.572 234.874 281.162 230.068 270.924 223.579L251.057 236.824C248.861 238.289 245.936 237.999 244.07 236.132L224.976 217.039C223.11 215.172 222.82 212.248 224.284 210.052L237.531 190.182C236.231 188.132 234.999 186.034 233.837 183.892L245.409 176.842L245.435 176.891C261.245 206.498 292.448 226.645 328.356 226.645C364.264 226.645 395.467 206.498 411.277 176.891L411.303 176.842L422.936 183.881Z" fill="white"/>
<path d="M379.388 134.373C379.352 136.093 379.318 137.615 379.292 138.768C371.403 144.439 352.693 156.566 340.968 159.704C329.243 162.841 307.962 180.636 298.787 189.141C297.873 188.778 296.734 188.214 295.462 187.441C300.99 182.737 307.973 176.908 314.536 171.663C318.761 168.286 322.787 165.171 326.124 162.759C329.587 160.257 331.981 158.757 333.085 158.324C337.118 156.742 347.704 151.851 359.063 145.904C365.875 142.338 373.083 138.331 379.388 134.373Z" fill="white"/>
<path d="M305.831 81.7952C325.638 73.0899 354.364 76.3223 366.251 79.0267C366.758 83.4627 368.478 93.1409 371.303 96.366C374.834 100.397 379.705 111.416 379.659 118.15C379.643 120.35 379.597 123.418 379.54 126.594C372.807 131.079 364.28 135.89 356.07 140.188C344.796 146.09 334.446 150.859 330.728 152.317C328.731 153.101 325.677 155.121 322.344 157.529C318.885 160.029 314.768 163.217 310.507 166.623C303.432 172.278 295.888 178.59 290.165 183.478C286.189 179.903 282.101 174.714 279.771 167.759C279.584 167.2 279.407 166.621 279.239 166.023C294.14 156.365 313.968 143.482 316.564 141.668C320.544 138.886 323.486 132.398 325.763 125.778C328.041 119.158 329.522 114.893 328.837 111.402C328.152 107.91 325.763 107.383 322.344 107.383C318.924 107.383 317.155 107.869 308.763 114.893L277.016 124.142C277.095 123.031 277.178 122.01 277.262 121.096C278.532 111.623 286.025 90.5005 305.831 81.7952Z" fill="white"/>
<path d="M321.228 110.049C323.723 110.049 325.745 112.071 325.745 114.566C325.745 117.061 323.723 119.084 321.228 119.084C318.733 119.084 316.71 117.061 316.71 114.566C316.71 112.071 318.733 110.049 321.228 110.049Z" fill="white"/>
<path fill-rule="evenodd" clip-rule="evenodd" d="M328.419 47.2553C375.622 47.2553 413.888 85.5211 413.888 132.724C413.888 179.928 375.622 218.194 328.419 218.194C281.216 218.194 242.95 179.928 242.95 132.724C242.95 85.5211 281.216 47.2553 328.419 47.2553ZM328.419 49.6916C282.561 49.6917 245.386 86.8667 245.386 132.724C245.386 178.582 282.561 215.757 328.419 215.757C374.277 215.757 411.452 178.582 411.452 132.724C411.452 86.8667 374.277 49.6916 328.419 49.6916Z" fill="white"/>
<path d="M341.899 0C344.539 1.70166e-05 346.811 1.8631 347.329 4.45137L352.01 27.8554C364.204 30.5906 375.615 35.3983 385.853 41.8892L405.719 28.6457C407.915 27.1816 410.839 27.4711 412.706 29.3375L431.799 48.4311C433.666 50.2975 433.955 53.2219 432.491 55.4182L419.244 75.2897C420.279 76.9236 421.271 78.5872 422.219 80.2792L422.246 80.3276L422.254 80.3428L422.216 80.3454L410.598 87.2671L410.572 87.2187C394.551 58.3219 363.738 38.7616 328.356 38.7616C292.974 38.7616 262.161 58.3219 246.14 87.2187L246.113 87.2671L234.553 80.3791L234.508 80.3524C229.54 89.2377 225.796 98.9009 223.506 109.113L200.104 113.794C197.516 114.311 195.653 116.584 195.653 119.224V146.226C195.653 148.866 197.516 151.138 200.104 151.656L223.504 156.336C225.679 166.044 229.168 175.255 233.774 183.775L233.8 183.823L233.837 183.892L233.738 183.861L233.667 183.838L70.9789 132.509L64.168 122.21L187.291 150.506L183.36 133.894L53.9515 106.484L46.0608 94.5506L185.132 113.794L192.46 98.2607L36.7303 80.3473L28.0366 66.9467L234.493 80.3434L234.512 80.3445L234.535 80.3039C235.492 78.595 236.493 76.9149 237.539 75.2653L224.298 55.404C222.834 53.2078 223.124 50.2833 224.99 48.4169L244.084 29.3234C245.95 27.4569 248.875 27.1673 251.071 28.6314L270.936 41.875C281.177 35.386 292.591 30.581 304.787 27.8489L309.467 4.45137C309.984 1.8631 312.257 8.50793e-06 314.897 0H341.899Z" fill="white"/>
<path d="M620.009 80.3473L464.28 98.2607L470.999 113.814L610.679 94.5506L602.788 106.484L470.999 134.226L467.87 151.656L592.572 122.21L585.761 132.509L422.936 183.881C427.545 175.362 431.081 166.068 433.259 156.358L456.671 151.676C459.26 151.158 461.123 148.886 461.123 146.246V119.244C461.123 116.604 459.26 114.332 456.671 113.814L433.265 109.133C430.975 98.9094 427.228 89.2363 422.254 80.3428L628.703 66.9467L620.009 80.3473Z" fill="white"/>
</svg>
